<svg id="visual" viewBox="0 0 960 540" width="960" height="540" xmlns="http://www.w3.org/2000/svg" xmlns:xlink="http://www.w3.org/1999/xlink" version="1.1"><rect x="0" y="0" width="960" height="540" fill="#8fe0ff"></rect><path d="M0 349L22.8 347.3C45.7 345.7 91.3 342.3 137 347.3C182.7 352.3 228.3 365.7 274 371.3C319.7 377 365.3 375 411.2 376C457 377 503 381 548.8 373.7C594.7 366.3 640.3 347.7 686 338.8C731.7 330 777.3 331 823 331.8C868.7 332.7 914.3 333.3 937.2 333.7L960 334L960 541L937.2 541C914.3 541 868.7 541 823 541C777.3 541 731.7 541 686 541C640.3 541 594.7 541 548.8 541C503 541 457 541 411.2 541C365.3 541 319.7 541 274 541C228.3 541 182.7 541 137 541C91.3 541 45.7 541 22.8 541L0 541Z" fill="#fa7268"></path><path d="M0 414L22.8 412.7C45.7 411.3 91.3 408.7 137 405.7C182.7 402.7 228.3 399.3 274 397.8C319.7 396.3 365.3 396.7 411.2 397.2C457 397.7 503 398.3 548.8 393.2C594.7 388 640.3 377 686 376.2C731.7 375.3 777.3 384.7 823 394.7C868.7 404.7 914.3 415.3 937.2 420.7L960 426L960 541L937.2 541C914.3 541 868.7 541 823 541C777.3 541 731.7 541 686 541C640.3 541 594.7 541 548.8 541C503 541 457 541 411.2 541C365.3 541 319.7 541 274 541C228.3 541 182.7 541 137 541C91.3 541 45.7 541 22.8 541L0 541Z" fill="#ef5f67"></path><path d="M0 399L22.8 402.7C45.7 406.3 91.3 413.7 137 416C182.7 418.3 228.3 415.7 274 419.2C319.7 422.7 365.3 432.3 411.2 434.7C457 437 503 432 548.8 428.7C594.7 425.3 640.3 423.7 686 420.5C731.7 417.3 777.3 412.7 823 411.7C868.7 410.7 914.3 413.3 937.2 414.7L960 416L960 541L937.2 541C914.3 541 868.7 541 823 541C777.3 541 731.7 541 686 541C640.3 541 594.7 541 548.8 541C503 541 457 541 411.2 541C365.3 541 319.7 541 274 541C228.3 541 182.7 541 137 541C91.3 541 45.7 541 22.8 541L0 541Z" fill="#e34c67"></path><path d="M0 437L22.8 439C45.7 441 91.3 445 137 453C182.7 461 228.3 473 274 473.3C319.7 473.7 365.3 462.3 411.2 458C457 453.7 503 456.3 548.8 459.2C594.7 462 640.3 465 686 469.2C731.7 473.3 777.3 478.7 823 478.5C868.7 478.3 914.3 472.7 937.2 469.8L960 467L960 541L937.2 541C914.3 541 868.7 541 823 541C777.3 541 731.7 541 686 541C640.3 541 594.7 541 548.8 541C503 541 457 541 411.2 541C365.3 541 319.7 541 274 541C228.3 541 182.7 541 137 541C91.3 541 45.7 541 22.8 541L0 541Z" fill="#d53867"></path><path d="M0 484L22.8 487.8C45.7 491.7 91.3 499.3 137 500C182.7 500.7 228.3 494.3 274 495.8C319.7 497.3 365.3 506.7 411.2 510.5C457 514.3 503 512.7 548.8 505.5C594.7 498.3 640.3 485.7 686 480C731.7 474.3 777.3 475.7 823 477.7C868.7 479.7 914.3 482.3 937.2 483.7L960 485L960 541L937.2 541C914.3 541 868.7 541 823 541C777.3 541 731.7 541 686 541C640.3 541 594.7 541 548.8 541C503 541 457 541 411.2 541C365.3 541 319.7 541 274 541C228.3 541 182.7 541 137 541C91.3 541 45.7 541 22.8 541L0 541Z" fill="#c62368"></path></svg>