<svg id="visual" viewBox="0 0 900 600" width="900" height="600" xmlns="http://www.w3.org/2000/svg" xmlns:xlink="http://www.w3.org/1999/xlink" version="1.1"><path d="M0 199L82 145L164 121L245 157L327 253L409 133L491 115L573 109L655 103L736 139L818 175L900 247L900 0L818 0L736 0L655 0L573 0L491 0L409 0L327 0L245 0L164 0L82 0L0 0Z" fill="#00cc8e"></path><path d="M0 325L82 325L164 319L245 439L327 337L409 283L491 301L573 367L655 301L736 355L818 349L900 355L900 245L818 173L736 137L655 101L573 107L491 113L409 131L327 251L245 155L164 119L82 143L0 197Z" fill="#00b98a"></path><path d="M0 427L82 391L164 391L245 481L327 379L409 361L491 373L573 457L655 403L736 451L818 385L900 397L900 353L818 347L736 353L655 299L573 365L491 299L409 281L327 335L245 437L164 317L82 323L0 323Z" fill="#00a784"></path><path d="M0 547L82 523L164 511L245 547L327 553L409 493L491 481L573 523L655 517L736 523L818 505L900 529L900 395L818 383L736 449L655 401L573 455L491 371L409 359L327 377L245 479L164 389L82 389L0 425Z" fill="#00957c"></path><path d="M0 601L82 601L164 601L245 601L327 601L409 601L491 601L573 601L655 601L736 601L818 601L900 601L900 527L818 503L736 521L655 515L573 521L491 479L409 491L327 551L245 545L164 509L82 521L0 545Z" fill="#038373"></path></svg>